<svg xmlns="http://www.w3.org/2000/svg" version="1.1" xmlns:xlink="http://www.w3.org/1999/xlink" xmlns:svgjs="http://svgjs.dev/svgjs" width="360" height="369"><svg width="360" height="369" version="1.1" id="SvgjsSvg1071" sodipodi:docname="International_Symbol_for_Deafness.svg" inkscape:version="1.2.2 (b0a8486, 2022-12-01)" xmlns:inkscape="http://www.inkscape.org/namespaces/inkscape" xmlns:sodipodi="http://sodipodi.sourceforge.net/DTD/sodipodi-0.dtd" xmlns="http://www.w3.org/2000/svg" xmlns:svg="http://www.w3.org/2000/svg">
  <defs id="SvgjsDefs1070"></defs>
  <sodipodi:namedview id="SvgjsSodipodi:namedview1069" pagecolor="#ffffff" bordercolor="#000000" borderopacity="0.25" inkscape:showpageshadow="2" inkscape:pageopacity="0.0" inkscape:pagecheckerboard="0" inkscape:deskcolor="#d1d1d1" showgrid="false" inkscape:zoom="1.0435386" inkscape:cx="220.88307" inkscape:cy="202.19665" inkscape:window-width="1194" inkscape:window-height="872" inkscape:window-x="0" inkscape:window-y="0" inkscape:window-maximized="0" inkscape:current-layer="svg6"></sodipodi:namedview>
  <path id="SvgjsPath1068" style="fill:#131313;fill-opacity:1;stroke:none;stroke-width:0;stroke-dasharray:none" d="M 180,7.9218775 A 176.5786,176.57858 0 0 0 3.4218775,184.5 176.5786,176.57858 0 0 0 36.644533,286.90039 l 81.054687,-82 72.98242,-38.67773 -8.08203,78.17773 -91.218749,92.38477 A 176.5786,176.57858 0 0 0 180,361.07812 176.5786,176.57858 0 0 0 356.57812,184.5 176.5786,176.57858 0 0 0 180,7.9218775 Z m 19.40039,26.5781245 c 36.79996,0.2 71.90002,19.500812 92,50.300781 21.49998,32.799967 24.5992,73.799257 6.19922,112.199217 -6.99999,14.49999 -15.89962,23.4004 -26.59961,33.40039 -9.99999,9.19999 -17.6004,18.0004 -23.90039,25.90039 -7.59999,9.39999 -13.2,17.89884 -16.5,25.79883 -5.69999,13.49999 -9.00001,22.19962 -19.5,31.59961 -7.59999,6.79999 -16.59884,11.20156 -26.79883,12.10156 -16.39998,1.6 -28.80001,-2.70118 -38,-10.20117 -1.4,-1.1 -3.20078,-4.1 -3.30078,-7 -0.1,-5.2 2.79961,-8.4 8.09961,-8.5 3.1,0 4.90117,1.90078 7.70117,3.80078 9.99999,6.79999 22.99884,8.79999 36.29883,0.5 11.59999,-7.39999 16.80001,-25.20118 23.5,-37.70117 10.79999,-20.39998 26.30119,-38.09963 43.20117,-53.59961 25.09998,-23.19998 35.99843,-58.59965 24.89844,-94.59961 -5.8,-19.099978 -17.89885,-36.10079 -34.29883,-47.800778 -10.49999,-7.499993 -23.3004,-13.100003 -36.40039,-15.5 -19.69998,-3.699997 -38.19963,-2.29999 -58.59961,8 -13.59999,6.799993 -26.0004,18.200012 -34.40039,30.5 -8.39999,12.199988 -13.39961,25.901188 -15.09961,40.701168 -0.1,0.5 -0.49961,0.79961 -1.09961,0.59961 -0.5,-0.2 -1.10156,-0.39922 -1.60156,-0.69922 -5.599994,-2.3 -9.800003,-4.5 -13.999999,-7.5 -0.7,-0.6 -1.3,-1.50039 -1,-2.90039 4.399995,-20.89998 13.700009,-40.400404 28.499999,-55.900388 12.29999,-12.799987 28.20041,-22.399615 45.40039,-28.099609 11.39999,-3.799997 23.30079,-5.400391 35.30078,-5.400391 z M 200.5,68.800783 c 19.39998,0.1 38.49962,7.799232 52.59961,21.199219 C 270.79959,106.89998 279.4,132.10081 276,156.30078 c -1.9,13.79999 -7.20079,28.59845 -16.30078,37.39844 -0.2,0.2 -0.5,0.40039 -1,0.40039 -3.1,-0.4 -5.99844,-1.29922 -9.39844,-4.19922 -1.2,-1 -1.70078,-1.50078 -2.30078,-2.30078 -0.3,-0.4 -0.40039,-1.20039 0.0996,-1.90039 7.3,-8.59999 12.3004,-20.59884 13.9004,-31.79883 2.6,-18.69998 -5.99923,-38.60118 -19.69922,-51.70117 -10.89999,-10.399989 -19.90119,-16.599999 -41.70117,-16.499999 -21.79998,0.2 -41.7004,10.500021 -52.90039,31.999999 -0.8,1.6 -1.59922,3.30039 -2.19922,4.90039 -0.3,0.7 -1,1.00117 -2,0.70117 -1.6,-0.4 -3.19922,-0.70039 -4.69922,-1.40039 -3.1,-1.4 -5.00117,-2.89961 -7.20117,-4.59961 C 129.69961,116.60078 129.5,115.7 130,114.5 137.69999,97.400019 151.09924,83.499213 168.19922,75.699221 178.29921,71.199225 189.40001,68.700783 200.5,68.800783 Z"></path>
</svg><style>@media (prefers-color-scheme: light) { :root { filter: none; } }
@media (prefers-color-scheme: dark) { :root { filter: invert(100%); } }
</style></svg>